{"title":"Geordie Shore S10E01 WEB DL","uid":11805519,"size":521447771,"categoryP":"video","categoryS":"tv_shows","magnet":"?xt=urn:btih:abdc92599062d17e8058915ad9c87d20e0931bdf&amp;dn=Geordie+Shore+S10E01+WEB+DL&amp;tr=udp%3A%2F%2Ftracker.openbittorrent.com%3A80&amp;tr=udp%3A%2F%2Fopen.demonii.com%3A1337&amp;tr=udp%3A%2F%2Ftracker.coppersurfer.tk%3A6969&amp;tr=udp%3A%2F%2Fexodus.desync.com%3A6969","seeders":15,"leechers":2,"uploader":"jmanwf","files":2,"time":1428565467,"description":"Format                                   : MPEG-4\nFormat profile                           : Base Media / Version 2\nCodec ID                                 : mp42\nFile size                                : 497 MiB\nDuration                                 : 42mn 17s\nOverall bit rate mode                    : Variable\nOverall bit rate                         : 1 644 Kbps\nMovie name                               : 1001\nAlbum                                    : Geordie Shore, Season 10\nAlbum/Performer                          : Geordie Shore\nPart/Position                            : 1\nPart/Total                               : 1\nTrack name/Position                      : 1\nTrack name/Total                         : 6\nPerformer                                : Geordie Shore\nGenre                                    : Reality TV\nDescription                              : Buzzin'! Our favourite party animals are back! When Charlotte finds out about a pact between Gary\nRecorded date                            : UTC 2015-04-07 07:00:00\nEncoded date                             : UTC 2015-04-08 06:15:56\nTagged date                              : UTC 2015-04-08 06:17:56\nCover                                    : Yes\nLongDescription                          : Buzzin'! Our favourite party animals are back! When Charlotte finds out about a pact between Gary and Aaron she hatches a plan - but will she end up with egg on her face?\n\nVideo\nID                                       : 2\nFormat                                   : AVC\nFormat/Info                              : Advanced Video Codec\nFormat profile                           : &lt;a class=&quot;__cf_email__&quot; href=&quot;/cdn-cgi/l/email-protection&quot; data-cfemail=&quot;57153624323b3e3932171b647967&quot;&gt;[email&amp;#160;protected]&lt;/a&gt;&lt;script cf-hash='f9e31' type=&quot;text/javascript&quot;&gt;\n/* &lt;![CDATA[ */!function(){try{var t=&quot;currentScript&quot;in document?document.currentScript:function(){for(var t=document.getElementsByTagName(&quot;script&quot;),e=t.length;e--;)if(t[e].getAttribute(&quot;cf-hash&quot;))return t[e]}();if(t&amp;&amp;t.previousSibling){var e,r,n,i,c=t.previousSibling,a=c.getAttribute(&quot;data-cfemail&quot;);if(a){for(e=&quot;&quot;,r=parseInt(a.substr(0,2),16),n=2;a.length-n;n+=2)i=parseInt(a.substr(n,2),16)^r,e+=String.fromCharCode(i);e=document.createTextNode(e),c.parentNode.replaceChild(e,c)}}}catch(u){}}();/* ]]&gt; */&lt;/script&gt;\nFormat settings, CABAC                   : No\nFormat settings, ReFrames                : 1 frame\nCodec ID                                 : avc1\nCodec ID/Info                            : Advanced Video Coding\nDuration                                 : 42mn 17s\nBit rate                                 : 1 516 Kbps\nWidth                                    : 640 pixels\nHeight                                   : 480 pixels\nDisplay aspect ratio                     : 16:9\nFrame rate mode                          : Constant\nFrame rate                               : 25.000 fps\nColor space                              : YUV\nChroma subsampling                       : 4:2:0\nBit depth                                : 8 bits\nScan type                                : Progressive\nBits/(Pixel*Frame)                       : 0.197\nStream size                              : 458 MiB (92%)\nLanguage                                 : English\nEncoded date                             : UTC 2015-04-08 06:17:26\nTagged date                              : UTC 2015-04-08 06:17:50\nColor primaries                          : BT.601 NTSC\nTransfer characteristics                 : BT.709\nMatrix coefficients                      : BT.601\nColor range                              : Limited\n\nAudio\nID                                       : 1\nFormat                                   : AAC\nFormat/Info                              : Advanced Audio Codec\nFormat profile                           : LC\nCodec ID                                 : 40\nDuration                                 : 42mn 16s\nDuration_LastFrame                       : -12ms\nBit rate mode                            : Variable\nBit rate                                 : 126 Kbps\nMaximum bit rate                         : 193 Kbps\nChannel(s)                               : 2 channels\nChannel positions                        : Front: L R\nSampling rate                            : 44.1 KHz\nCompression mode                         : Lossy\nStream size                              : 38.0 MiB (8%)\nLanguage                                 : English\nEncoded date                             : UTC 2015-04-08 06:16:00\nTagged date                              : UTC 2015-04-08 06:17:25\n\nText\nID                                       : 3-CC1\nFormat                                   : EIA-608\nMuxing mode                              : Final Cut\nCodec ID                                 : c608\nDuration                                 : 42mn 15s\nBit rate mode                            : Constant\nStream size                              : 0.00 Byte (0%)\nLanguage                                 : English\nEncoded date                             : UTC 2015-04-08 06:17:51\nTagged date                              : UTC 2015-04-08 06:17:54\n\n\n &lt;a href=&quot;\nhttps://itunes.apple.com/gb/tv-season/geordie-shore-season-10/id979550691&quot; rel=&quot;nofollow&quot; target=&quot;_NEW&quot;&gt;\nhttps://itunes.apple.com/gb/tv-season/geordie-shore-season-10/id979550691&lt;/a&gt;","torrent":{"xt":"urn:btih:abdc92599062d17e8058915ad9c87d20e0931bdf","amp;dn":"Geordie+Shore+S10E01+WEB+DL","amp;tr":["udp%3A%2F%2Ftracker.openbittorrent.com%3A80","udp%3A%2F%2Fopen.demonii.com%3A1337","udp%3A%2F%2Ftracker.coppersurfer.tk%3A6969","udp%3A%2F%2Fexodus.desync.com%3A6969"],"infoHash":"abdc92599062d17e8058915ad9c87d20e0931bdf","infoHashBuffer":{"type":"Buffer","data":[171,220,146,89,144,98,209,126,128,88,145,90,217,200,125,32,224,147,27,223]},"announce":[],"urlList":[]}}